<svg width="402" height="183" viewBox="0 0 402 183" fill="none" xmlns="http://www.w3.org/2000/svg">
<rect x="1" y="0.5" width="400.32" height="182" rx="9.9" fill="white"/>
<rect x="1" y="0.5" width="400.32" height="182" rx="9.9" stroke="#E4E6E8"/>
<path d="M162.839 73.4073C161.327 71.6208 159.661 69.9548 157.703 68.5117C156.733 67.7827 155.696 67.1108 154.56 66.5083C153.416 65.9178 152.244 65.3484 150.843 64.9568C150.867 66.4119 151.12 67.6923 151.418 68.9455C151.701 70.1627 152.084 71.3045 152.53 72.4011C151.463 72.7144 150.168 73.1542 148.71 73.7206C147.767 74.1424 146.734 74.522 145.691 75.0853C144.634 75.5915 143.561 76.206 142.474 76.8929C141.368 77.5166 140.338 78.4023 139.256 79.1675C138.271 80.1044 137.19 80.9148 136.313 81.9783C135.406 82.9966 134.52 84.0149 133.836 85.1717C133.49 85.7351 133.089 86.2563 132.8 86.8317C132.523 87.4161 132.258 87.9976 131.999 88.564C131.411 89.6606 131.143 90.8415 130.836 91.9171C130.471 92.9835 130.342 94.0289 130.242 94.993C130.161 95.954 129.959 96.8036 130.007 97.5869C130.031 98.3581 130.05 99.0269 130.068 99.5813C130.101 100.675 130.11 101.298 130.11 101.298C130.11 101.298 130.227 100.681 130.426 99.6054C130.526 99.0721 130.649 98.4304 130.791 97.6893C130.902 96.9512 131.285 96.1679 131.55 95.3033C131.833 94.4387 132.161 93.5168 132.704 92.6311C133.198 91.7303 133.647 90.7572 134.376 89.9167C134.704 89.4858 135.041 89.04 135.376 88.5971C135.728 88.1663 136.18 87.7957 136.569 87.392C137.334 86.5575 138.268 85.8827 139.193 85.2139C140.076 84.5119 141.151 84.039 142.082 83.4635C143.143 83.0388 144.076 82.5085 145.119 82.2012C146.113 81.8397 147.092 81.5354 148.05 81.3185C148.981 81.0474 149.918 80.9269 150.734 80.7521C151.259 80.6768 151.741 80.6136 152.205 80.5563C152.15 80.6949 152.093 80.8275 152.045 80.9691C151.569 82.2735 151.198 83.6443 150.939 85.0874C150.822 85.8194 150.725 86.5606 150.65 87.3167C150.59 88.085 150.578 88.8803 150.632 89.7178C151.418 89.4165 152.132 89.0761 152.81 88.7056C153.464 88.323 154.106 87.9253 154.717 87.5156C155.931 86.6811 157.025 85.7742 158.013 84.8042C160.013 82.87 161.667 80.71 163.056 78.3872L163.234 78.092C164.087 76.6489 163.987 74.76 162.839 73.4073Z" fill="#374151"/>
<path d="M169.035 82.0086C168.978 80.918 168.93 80.2974 168.93 80.2974C168.93 80.2974 168.842 80.915 168.658 81.9965C168.571 82.5297 168.472 83.1775 168.354 83.9216C168.264 84.6627 167.905 85.455 167.664 86.3287C167.414 87.2024 167.116 88.1303 166.598 89.0341C166.134 89.9499 165.715 90.932 165.01 91.7967C164.697 92.2395 164.374 92.6914 164.055 93.1494C163.709 93.5862 163.275 93.9718 162.886 94.3876C162.151 95.2401 161.238 95.9481 160.332 96.641C159.479 97.3701 158.412 97.8702 157.497 98.4757C156.454 98.9306 155.535 99.491 154.502 99.8254C153.523 100.22 152.55 100.551 151.598 100.795C150.679 101.097 149.751 101.244 148.938 101.44C148.416 101.534 147.931 101.612 147.473 101.681C147.516 101.54 147.573 101.407 147.621 101.265C148.055 99.9429 148.386 98.5631 148.603 97.114C148.697 96.3789 148.766 95.6348 148.82 94.8756C148.859 94.1074 148.847 93.309 148.772 92.4775C147.995 92.7969 147.29 93.1614 146.624 93.5531C145.976 93.9537 145.359 94.3695 144.753 94.7973C143.572 95.6679 142.506 96.6049 141.548 97.6081C139.607 99.5995 138.02 101.808 136.7 104.173L136.528 104.468C135.718 105.938 135.875 107.821 137.065 109.141C138.631 110.879 140.349 112.497 142.343 113.879C143.331 114.581 144.389 115.22 145.548 115.786C146.702 116.347 147.889 116.883 149.308 117.23C149.233 115.78 148.938 114.509 148.615 113.265C148.293 112.057 147.88 110.924 147.398 109.842C148.459 109.496 149.733 109.02 151.176 108.411C152.104 107.966 153.125 107.55 154.153 106.956C155.189 106.423 156.249 105.775 157.301 105.055C158.385 104.399 159.392 103.483 160.455 102.684C161.41 101.723 162.467 100.874 163.314 99.7893C164.191 98.7439 165.04 97.7045 165.691 96.5265C166.022 95.9511 166.399 95.4179 166.676 94.8334C166.929 94.2399 167.182 93.6525 167.423 93.0771C167.978 91.9624 168.213 90.7724 168.49 89.6908C168.815 88.6183 168.924 87.5669 168.99 86.6029C169.053 85.6418 169.219 84.7832 169.153 84.0029C169.101 83.2347 169.065 82.5629 169.035 82.0086Z" fill="#374151"/>
<path d="M195.37 81.903C196.376 81.3999 198.328 80.4268 198.328 76.9592C198.328 74.4707 196.816 70.7682 190.896 70.7682H179.168V94.9086H189.39C194.334 94.9086 195.644 94.0681 197.021 92.7154C198.292 91.4802 199.1 89.6575 199.1 87.7505C199.1 85.3615 198.328 83.0086 195.37 81.903ZM184.012 74.9467H189.797C192.08 74.9467 193.493 75.5493 193.493 77.5316C193.493 79.4537 191.918 80.2249 189.926 80.2249H184.012V74.9467ZM190.191 90.7391H184.012V84.283H190.432C192.252 84.283 194.063 85.0994 194.063 87.2083C194.057 89.6575 192.644 90.7391 190.191 90.7391Z" fill="#374151"/>
<path d="M179.171 98.7316V100.925H182.907V111.099H185.482V100.925H189.227V98.7316H179.171Z" fill="#374151"/>
<path d="M262.29 80.6528L272.141 70.7653H265.622L256.409 80.5775V70.7653H251.366V94.8997H256.409V86.7323L258.762 84.3102L266.221 94.8997H272.71L262.29 80.6528Z" fill="#374151"/>
<path d="M214.976 70.7653H209.161L200.563 94.9027H205.872L207.55 89.9318H216.458L218.007 94.8997H223.484L214.976 70.7653ZM208.893 85.7562L211.987 76.2121H212.057L215.045 85.7562H208.893Z" fill="#374151"/>
<path d="M200.566 108.303C200.566 105.995 200.012 105.616 198.997 105.17C200.22 104.757 200.91 103.591 200.91 102.22C200.91 101.154 200.31 98.7286 197.02 98.7286H190.766V111.09H193.303V106.254H195.969C197.882 106.254 197.987 106.911 197.987 108.592C197.987 109.863 198.087 110.508 198.259 111.087H201.118V110.764C200.566 110.559 200.566 110.107 200.566 108.303ZM196.321 104.179H193.3V100.865H196.517C198.03 100.865 198.325 101.823 198.325 102.482C198.322 103.7 197.671 104.179 196.321 104.179Z" fill="#374151"/>
<path d="M248.049 100.925V98.7316H239.252V111.102H241.837V105.902H247.278V103.715H241.837V100.925H248.049Z" fill="#374151"/>
<path d="M252.315 108.906V105.712H258.34V103.525H252.315V100.928H258.88V98.7379H249.784V111.099H259.169V108.906H252.315Z" fill="#374151"/>
<path d="M234.046 104.049L231.04 103.308C230.521 103.184 229.726 102.976 229.726 102.012C229.726 100.895 230.904 100.536 231.88 100.536C234.14 100.536 234.347 101.841 234.417 102.392H236.887C236.869 100.877 235.857 98.4003 232.067 98.4003C228.054 98.4003 227.316 100.825 227.316 102.202C227.316 104.926 229.241 105.381 231.241 105.839L232.564 106.152C233.868 106.468 234.802 106.721 234.802 107.691C234.802 108.984 233.438 109.285 232.224 109.285C229.964 109.285 229.618 107.978 229.6 107.288H227.129C227.129 108.827 227.897 111.421 232.41 111.421C233.489 111.421 237.282 111.084 237.282 107.375C237.279 105.155 235.73 104.459 234.046 104.049Z" fill="#374151"/>
<path d="M271.075 108.303C271.075 105.995 270.514 105.616 269.505 105.17C270.722 104.757 271.424 103.591 271.424 102.22C271.424 101.154 270.819 98.7286 267.529 98.7286H261.281V111.09H263.817V106.254H266.483C268.39 106.254 268.502 106.911 268.502 108.592C268.502 109.863 268.601 110.508 268.776 111.087H271.626V110.764C271.075 110.559 271.075 110.107 271.075 108.303ZM266.839 104.179H263.814V100.865H267.026C268.544 100.865 268.839 101.823 268.839 102.482C268.839 103.7 268.186 104.179 266.839 104.179Z" fill="#374151"/>
<path d="M241.439 70.7744V87.579H241.376L231.793 70.7744H226.481V94.9118H231.187L231.193 77.7035H231.256L241.108 94.9148H246.145V70.7744H241.439Z" fill="#374151"/>
<path d="M209.291 98.7316H206.306L201.898 111.093H204.622L205.48 108.541H210.041L210.837 111.093H213.645L209.291 98.7316ZM206.173 106.408L207.761 101.521H207.785L209.327 106.408H206.173Z" fill="#374151"/>
<path d="M222.854 98.7316L222.851 107.336H222.821L217.907 98.7316H215.19V111.093H217.597V102.274H217.636L222.679 111.093H225.267V98.7316H222.854Z" fill="#374151"/>
</svg>
