<svg width="44" height="44" viewBox="0 0 44 44" fill="none" xmlns="http://www.w3.org/2000/svg">
<rect x="0.684082" y="1.37085" width="41.9355" height="41.9355" rx="7.05778" fill="white"/>
<rect x="0.684082" y="1.37085" width="41.9355" height="41.9355" rx="7.05778" stroke="#6140A3" stroke-width="1.2334" stroke-linecap="round"/>
<g clip-path="url(#clip0_70_38803)">
<path d="M13.0745 26.956C12.9864 27.044 12.9272 27.156 12.9021 27.2768L12.0123 31.7275C11.9708 31.9337 12.0362 32.1464 12.1846 32.2962C12.3043 32.4158 12.4653 32.4799 12.6304 32.4799C12.6705 32.4799 12.7122 32.4762 12.7537 32.4675L17.2031 31.5777C17.3264 31.5523 17.4384 31.4933 17.5253 31.405L27.4837 21.4468L23.0343 16.9977L13.0745 26.956Z" fill="#6140A3"/>
<path d="M30.5594 13.9204C29.3324 12.6932 27.3361 12.6932 26.11 13.9204L24.3682 15.6622L28.8176 20.1116L30.5594 18.3695C31.1536 17.7767 31.4808 16.9863 31.4808 16.1455C31.4808 15.3048 31.1536 14.5143 30.5594 13.9204Z" fill="#6140A3"/>
</g>
<defs>
<clipPath id="clip0_70_38803">
<rect width="22.4478" height="22.4478" fill="white" transform="translate(10.4282 11.1146)"/>
</clipPath>
</defs>
</svg>
