<svg width="34" height="34" viewBox="0 0 34 34" fill="none" xmlns="http://www.w3.org/2000/svg">
<g clip-path="url(#clip0_111_47369)">
<path d="M9.52009 26.9022C7.31136 26.9022 5.34682 25.4881 4.63357 23.3828L4.58528 23.2242C4.41697 22.6668 4.34661 22.1978 4.34661 21.7287V12.3226L0.999715 23.4946C0.569282 25.1377 1.55017 26.8415 3.19603 27.2954L24.5287 33.0083C24.795 33.0772 25.0612 33.1104 25.3233 33.1104C26.6974 33.1104 27.9528 32.1984 28.3046 30.8547L29.5477 26.9022H9.52009Z" fill="#6140A3"/>
<path d="M13.3139 12.4166C14.8356 12.4166 16.0731 11.1791 16.0731 9.65738C16.0731 8.13569 14.8356 6.89819 13.3139 6.89819C11.7922 6.89819 10.5547 8.13569 10.5547 9.65738C10.5547 11.1791 11.7922 12.4166 13.3139 12.4166Z" fill="#6140A3"/>
<path d="M30.5587 2.75928H9.86476C7.96368 2.75928 6.41577 4.30718 6.41577 6.20826V21.3838C6.41577 23.2849 7.96368 24.8328 9.86476 24.8328H30.5587C32.4597 24.8328 34.0077 23.2849 34.0077 21.3838V6.20826C34.0077 4.30718 32.4597 2.75928 30.5587 2.75928ZM9.86476 5.51847H30.5587C30.9394 5.51847 31.2485 5.82749 31.2485 6.20826V16.002L26.8903 10.9168C26.4282 10.3746 25.7591 10.0849 25.0403 10.0684C24.3257 10.0725 23.6552 10.3898 23.1972 10.9389L18.0733 17.0891L16.404 15.424C15.4604 14.4803 13.9249 14.4803 12.9826 15.424L9.17496 19.2303V6.20826C9.17496 5.82749 9.48399 5.51847 9.86476 5.51847Z" fill="#6140A3"/>
</g>
<defs>
<clipPath id="clip0_111_47369">
<rect width="33.1103" height="33.1103" fill="white" transform="translate(0.897461)"/>
</clipPath>
</defs>
</svg>
