<svg width="34" height="34" viewBox="0 0 34 34" fill="none" xmlns="http://www.w3.org/2000/svg">
<g clip-path="url(#clip0_111_47380)">
<path d="M22.7924 18.8996C22.7924 21.8442 20.397 24.2395 17.4525 24.2395C14.5079 24.2395 12.1135 21.8442 12.1135 18.8996C12.1135 15.9551 14.5079 13.5597 17.4525 13.5597C20.397 13.5597 22.7924 15.956 22.7924 18.8996ZM34.0076 11.3172V26.4839C34.0076 28.5058 32.3683 30.1451 30.3464 30.1451H4.55856C2.53665 30.1451 0.897339 28.5058 0.897339 26.4839V11.3172C0.897339 9.29533 2.53665 7.65602 4.55856 7.65602H9.06186V6.38924C9.06186 4.61995 10.4952 3.18567 12.2654 3.18567H22.6395C24.4097 3.18567 25.8431 4.61995 25.8431 6.38924V7.65511H30.3464C32.3683 7.65602 34.0076 9.29533 34.0076 11.3172ZM25.5383 18.8996C25.5383 14.4412 21.9109 10.8138 17.4525 10.8138C12.9949 10.8138 9.36757 14.4412 9.36757 18.8996C9.36757 23.3581 12.9949 26.9854 17.4525 26.9854C21.9109 26.9854 25.5383 23.3581 25.5383 18.8996Z" fill="#6140A3"/>
</g>
<defs>
<clipPath id="clip0_111_47380">
<rect width="33.1103" height="33.1103" fill="white" transform="translate(0.897461 0.110229)"/>
</clipPath>
</defs>
</svg>
